<svg width="232" height="155" viewBox="0 0 232 155" fill="none" xmlns="http://www.w3.org/2000/svg">
<path d="M226.683 27.721C226.683 22.2083 224.493 16.9214 220.595 13.0234C216.697 9.12536 211.41 6.93546 205.897 6.93546L47.9794 1.54199C36.4989 1.54199 26.4795 16.2405 26.4795 27.721V114.687L0.522433 147.778C0.134048 149.281 -0.122563 150.962 0.0600701 152.464C0.18722 152.797 0.312058 153.135 0.420713 153.477C0.605659 153.791 0.790604 154.101 0.977861 154.402C1.10732 154.471 1.23678 154.536 1.36393 154.596C2.1864 154.792 3.02901 154.891 3.87457 154.892L47.2627 135.472H205.897C217.375 135.472 230.765 124.145 230.765 112.662L226.683 27.721Z" fill="#4A5CFF"/>
<path d="M211.214 128.537H52.5799L3.66188 150.432C1.535 151.385 -0.44391 148.851 0.99404 147.018L31.7967 107.752V20.7856C31.7964 18.0561 32.3337 15.3533 33.378 12.8315C34.4224 10.3097 35.9532 8.01829 37.8831 6.08815C39.8131 4.158 42.1043 2.62691 44.626 1.58231C47.1477 0.537712 49.8504 6.10183e-05 52.5799 6.10352e-05L211.214 6.10352e-05C216.727 6.10352e-05 222.014 2.18996 225.912 6.08801C229.81 9.98605 232 15.2729 232 20.7856V107.752C232 110.481 231.462 113.184 230.418 115.706C229.373 118.228 227.842 120.519 225.912 122.449C223.982 124.379 221.691 125.91 219.169 126.955C216.647 127.999 213.944 128.537 211.214 128.537Z" fill="#FFABAB"/>
<path d="M129.349 27.2795C128.84 28.1479 128.377 29.0422 127.962 29.9589C126.804 32.5141 125.987 35.2104 125.532 37.9786C125.07 40.7643 125.104 43.4969 125.109 46.3011C124.582 45.2678 124.071 44.2205 123.532 43.1941C121.103 38.545 117.908 34.178 113.615 31.094C108.494 27.4136 101.621 25.7768 95.7188 28.0054C90.3392 30.0283 86.3906 35.0357 84.8532 40.5748C83.3159 46.1139 84.0071 52.0969 85.9375 57.5111C87.8679 62.9254 90.9796 67.838 94.3433 72.4963C100.565 81.109 107.709 89.016 115.649 96.0769C119.654 99.6409 123.851 102.983 128.221 106.089C130.419 107.647 132.706 108.968 134.913 110.482C137.244 112.081 139.658 113.555 142.145 114.897C142.628 115.159 145.356 110.142 145.636 109.717C147.234 107.271 148.742 104.77 150.16 102.215C153.001 97.1061 155.473 91.8008 157.558 86.3395C161.601 75.7259 165.402 65.2627 167.267 53.9995C167.773 50.9402 168.151 47.8647 168.402 44.773C169.096 36.0899 168.31 26.3733 162.042 20.3233C157.435 15.8661 150.391 14.3172 144.17 15.8476C137.949 17.378 132.611 21.7635 129.349 27.2795Z" fill="#FF4343"/>
<path d="M45.6677 49.2602C46.1301 47.7459 47.4848 46.6802 48.9806 46.2895C50.5989 45.8687 52.2472 46.3334 53.6181 47.3622C54.2873 47.8805 54.8668 48.5054 55.3335 49.2116C55.8448 50.0181 56.2183 50.9041 56.4385 51.8332C56.9309 53.8144 56.7945 55.9367 56.2998 57.9179C55.8192 59.8326 54.9867 61.6411 53.8446 63.2513C53.2852 64.047 52.6478 64.7851 51.942 65.4544C51.5945 65.7906 51.2062 66.0819 50.7861 66.3214C50.6204 66.4147 50.4463 66.4921 50.266 66.5526C50.0728 66.6205 49.8728 66.667 49.6695 66.6913C49.5678 66.6913 49.4684 66.7028 49.3667 66.6913C49.3412 66.6913 49.0638 66.6751 49.1355 66.6913C49.0229 66.6756 48.9116 66.6516 48.8026 66.6196C48.7471 66.6034 48.5506 66.5317 48.5899 66.5502C48.2484 66.4063 47.9731 66.14 47.8177 65.8035C47.8177 65.8035 47.7576 65.6764 47.7946 65.7642C47.7738 65.7157 47.7576 65.6625 47.7414 65.6116C47.7114 65.5221 47.686 65.431 47.6652 65.3389C47.6536 65.2834 47.642 65.2302 47.6328 65.177C47.6097 65.0429 47.6328 65.2672 47.6328 65.1308C47.6328 64.9944 47.6143 64.8788 47.6143 64.754C47.6072 64.3522 47.6642 63.9519 47.7831 63.568C48.0095 62.7751 48.3784 62.0301 48.8719 61.3695C49.8547 60.0695 51.2029 59.0923 52.7442 58.5629C53.1601 58.4209 53.5858 58.3096 54.018 58.23C54.3994 58.1597 54.7862 58.1225 55.1739 58.119C56.8693 58.1116 58.5263 58.623 59.9224 59.5847C60.6297 60.0564 61.2711 60.62 61.8297 61.2608C62.1066 61.5672 62.3578 61.8958 62.581 62.2433C62.8308 62.6179 63.0541 63.0096 63.2491 63.4154C63.4292 63.7881 63.5792 64.1747 63.6976 64.5713C63.8402 65.0257 63.9522 65.4891 64.0328 65.9584C64.182 66.8918 64.21 67.8406 64.116 68.7811C63.9179 70.6516 63.2673 72.4456 62.2204 74.0082C61.7275 74.7844 61.0884 75.4573 60.3385 75.9894C59.6149 76.4518 58.7318 76.7338 57.9666 76.5951C57.5786 76.5352 57.2111 76.3812 56.8962 76.1466C56.961 76.1998 56.8454 76.1027 56.8338 76.0888L56.7275 75.9894C56.6674 75.9293 56.6119 75.8669 56.5564 75.8021C56.6443 75.9015 56.4963 75.7143 56.4686 75.6727C56.4108 75.5825 56.3599 75.49 56.3114 75.3953C56.3114 75.3768 56.2374 75.2404 56.2744 75.3259C56.3114 75.4114 56.2744 75.2935 56.2605 75.2866C56.2258 75.1964 56.1935 75.1063 56.168 75.0138C56.1426 74.9213 56.1172 74.8242 56.0964 74.7294C56.0964 74.6855 56.0501 74.4243 56.0663 74.5722C56.0432 74.3735 56.034 74.1735 56.0386 73.9735C56.0386 73.8833 56.0386 73.7955 56.0386 73.7076C56.0386 73.6198 56.0386 73.6036 56.0501 73.5527C56.0617 73.5019 56.0732 73.3817 56.0501 73.4949C56.1136 73.0863 56.2206 72.6856 56.3692 72.2997C56.3692 72.2997 56.4177 72.1818 56.3876 72.2512C56.3576 72.3205 56.4177 72.1841 56.4269 72.1703C56.4639 72.0894 56.5032 72.0084 56.5448 71.9391C56.6448 71.7497 56.7551 71.566 56.8754 71.3889C56.924 71.3172 56.9748 71.2479 57.0257 71.1762C57.1136 71.0513 57.0581 71.13 57.0373 71.1554L57.1321 71.0398C57.2569 70.8872 57.3887 70.7393 57.5251 70.5982C57.6615 70.4572 57.8048 70.3231 57.9527 70.1937C58.0175 70.1359 58.0822 70.0804 58.1492 70.0272C58.1631 70.0272 58.2833 69.9209 58.214 69.974L58.3111 69.9024C58.63 69.6711 58.9654 69.4632 59.3144 69.2805C59.4809 69.195 59.6473 69.1164 59.8184 69.0493H59.8022L59.9409 68.9938L60.2553 68.8782C60.6224 68.7529 60.9968 68.6502 61.3765 68.5708C61.5738 68.5292 61.7726 68.4945 61.973 68.4667C61.8204 68.4875 62.0539 68.4667 62.0978 68.4667C62.2111 68.4529 62.329 68.4436 62.4377 68.4367C62.8418 68.4101 63.2472 68.4101 63.6514 68.4367C63.8409 68.4367 64.0305 68.4644 64.2178 68.4829L64.331 68.4968C64.1831 68.4783 64.3125 68.4968 64.331 68.4968L64.6663 68.5546C65.0641 68.6288 65.4565 68.73 65.8407 68.8574C66.021 68.9152 66.1967 68.9823 66.3747 69.0516C66.4001 69.0516 66.518 69.114 66.3862 69.0516L66.525 69.1117C66.6174 69.1534 66.7076 69.1973 66.7978 69.2435C67.1843 69.4374 67.5567 69.6583 67.9121 69.9047C68.2344 70.1247 68.539 70.3697 68.8229 70.6375C69.1501 70.9385 69.4589 71.2589 69.7476 71.5969C69.8124 71.6709 69.8748 71.7449 69.9372 71.8281C69.9511 71.8466 70.143 72.0894 70.0644 71.9876C70.2007 72.1656 70.3302 72.3483 70.4574 72.5332C71.4378 73.9836 72.096 75.6272 72.3877 77.3534C72.4085 77.4666 72.4293 77.5845 72.4455 77.6909L72.4733 77.8596C72.4733 77.8781 72.4941 78.0215 72.4733 77.8943C72.501 78.1047 72.5241 78.3174 72.5403 78.5301C72.5773 78.9693 72.5935 79.4086 72.5889 79.8478C72.5889 80.0661 72.6756 80.2754 72.8299 80.4298C72.9843 80.5841 73.1936 80.6708 73.4119 80.6708C73.6301 80.6708 73.8395 80.5841 73.9938 80.4298C74.1482 80.2754 74.2349 80.0661 74.2349 79.8478C74.2765 75.8807 72.7345 71.6455 69.5812 69.1048C68.1224 67.91 66.3591 67.1461 64.4897 66.899C62.6204 66.6519 60.7191 66.9314 59 67.7062C57.3956 68.4205 55.9345 69.655 55.13 71.2363C54.3024 72.8546 54.0481 75.1178 55.1947 76.6691C56.6234 78.5971 59.3421 78.574 61.2055 77.2886C63.0688 76.0033 64.2894 73.9041 65.013 71.8235C65.7308 69.7394 65.8902 67.5037 65.4754 65.3389C65.0644 63.3118 64.0827 61.4445 62.6457 59.9569C61.2539 58.492 59.4764 57.4502 57.5181 56.9516C55.5741 56.4821 53.5311 56.644 51.6854 57.4139C49.8196 58.1723 48.2404 59.4999 47.1727 61.2076C46.1671 62.8537 45.462 65.3389 46.7474 67.0288C47.0989 67.4605 47.5554 67.7948 48.0731 67.9996C48.5908 68.2044 49.1524 68.2729 49.7042 68.1986C50.904 68.0807 51.9258 67.468 52.8066 66.6705C54.4276 65.1574 55.7307 63.3365 56.6396 61.314C57.6275 59.2241 58.1781 56.9546 58.2579 54.6444C58.3134 52.3488 57.7955 49.956 56.42 48.0788C55.204 46.4189 53.4146 45.1197 51.3502 44.8007C50.3633 44.6436 49.3534 44.7168 48.3994 45.0143C47.4454 45.3119 46.573 45.8258 45.8504 46.516C45.1695 47.1764 44.6737 48.0038 44.4124 48.9157C44.1813 49.7202 45.4181 50.0554 45.6585 49.2602H45.6677Z" fill="white"/>
<path d="M85.595 105.925C85.5542 105.486 85.4344 105.057 85.2413 104.661C85.0741 104.339 84.8537 104.048 84.5894 103.801C84.0644 103.311 83.4177 102.972 82.7168 102.818C81.9945 102.662 81.2466 102.668 80.527 102.836C79.8074 103.004 79.1341 103.329 78.5555 103.789C77.9403 104.289 77.4862 104.959 77.2501 105.716C77.0141 106.472 77.0065 107.282 77.2285 108.043C77.5577 109.088 78.2501 109.981 79.1804 110.559C80.1108 111.138 81.2177 111.365 82.3007 111.198C83.4797 110.99 84.5015 110.193 85.1511 109.213C85.8007 108.232 86.1475 106.861 85.7776 105.724C85.7515 105.62 85.705 105.523 85.6408 105.438C85.5766 105.353 85.496 105.281 85.4037 105.227C85.3114 105.173 85.2094 105.139 85.1035 105.125C84.9976 105.111 84.89 105.118 84.787 105.147C84.6841 105.175 84.5878 105.224 84.5039 105.29C84.4199 105.356 84.35 105.438 84.2982 105.531C84.2465 105.625 84.2138 105.727 84.2023 105.833C84.1907 105.94 84.2005 106.047 84.231 106.149C84.2079 106.006 84.231 106.138 84.231 106.163C84.2449 106.26 84.2611 106.36 84.2749 106.457C84.2541 106.293 84.2749 106.586 84.2749 106.623C84.2749 106.725 84.2749 106.827 84.2749 106.931C84.2749 106.984 84.2426 107.241 84.2749 107.097C84.2433 107.3 84.1954 107.501 84.1316 107.696L84.0808 107.842C84.0808 107.862 84.0253 107.983 84.0808 107.865C84.036 107.972 83.985 108.077 83.9282 108.179C83.8362 108.35 83.7311 108.513 83.6138 108.667C83.6785 108.584 83.5259 108.769 83.4912 108.808C83.4149 108.894 83.3317 108.974 83.2485 109.053C83.141 109.161 83.0198 109.254 82.8879 109.33C82.8023 109.386 82.7145 109.437 82.6243 109.485L82.4856 109.552C82.5943 109.504 82.4417 109.569 82.4209 109.575C82.3238 109.608 82.2267 109.64 82.1273 109.666L81.9747 109.7C81.9585 109.7 81.799 109.73 81.8845 109.719C81.9192 109.719 81.725 109.73 81.6765 109.733C81.5447 109.733 81.4175 109.733 81.2881 109.733C81.2673 109.733 81.1355 109.717 81.2603 109.733L81.1447 109.714C81.043 109.696 80.9413 109.673 80.8419 109.645C80.7425 109.617 80.6431 109.585 80.5437 109.55C80.5298 109.55 80.3795 109.485 80.4558 109.518C80.5321 109.55 80.331 109.458 80.3333 109.458C79.6367 109.143 79.085 108.576 78.789 107.872C78.8283 107.964 78.7428 107.742 78.7266 107.694C78.6965 107.594 78.6688 107.495 78.648 107.393C78.648 107.342 78.6272 107.291 78.6179 107.241C78.6179 107.266 78.6318 107.356 78.6179 107.227C78.6179 107.148 78.6064 107.067 78.6041 106.996C78.6041 106.841 78.6041 106.69 78.6202 106.533C78.6364 106.376 78.6202 106.549 78.6202 106.572C78.6202 106.535 78.6318 106.501 78.6387 106.464C78.6557 106.385 78.6742 106.308 78.6942 106.233C78.7143 106.157 78.7351 106.09 78.7566 106.031C78.7844 105.955 78.8306 105.858 78.7566 105.994C78.8176 105.862 78.8855 105.733 78.9601 105.608C78.9971 105.551 79.0364 105.495 79.0734 105.44C79.1774 105.285 78.9878 105.532 79.1104 105.391C79.2036 105.282 79.3024 105.178 79.4063 105.079C79.4502 105.037 79.4941 104.998 79.5403 104.961L79.6189 104.896C79.6929 104.829 79.501 104.97 79.5889 104.922C79.7137 104.85 79.8201 104.755 79.9542 104.691C80.0882 104.626 80.1853 104.57 80.2963 104.515C80.4674 104.434 80.1784 104.557 80.3564 104.492L80.576 104.413C80.7078 104.372 80.8419 104.335 80.976 104.305L81.154 104.268C81.228 104.254 81.4222 104.238 81.2372 104.251C81.5107 104.224 81.7859 104.219 82.0602 104.235C82.0941 104.237 82.1281 104.237 82.1619 104.235C82.3376 104.247 81.9978 104.203 82.1619 104.235L82.3631 104.272C82.5114 104.303 82.6574 104.344 82.8 104.395L82.8948 104.429C83.0566 104.483 82.7561 104.358 82.9064 104.429L83.1098 104.529C83.1768 104.566 83.2416 104.603 83.304 104.644C83.3664 104.686 83.5121 104.785 83.4381 104.732C83.3641 104.679 83.5329 104.813 83.5629 104.839C83.593 104.864 83.6762 104.945 83.7294 105C83.7825 105.056 83.8334 105.118 83.8843 105.178C83.9351 105.239 83.9259 105.234 83.949 105.259C84.0345 105.361 83.9051 105.195 83.949 105.259C84.0415 105.398 84.127 105.539 84.2125 105.682C84.2564 105.759 84.3027 105.83 84.3443 105.914C84.3782 105.973 84.4076 106.035 84.4322 106.099C84.4725 106.232 84.5586 106.347 84.6753 106.423C84.7921 106.499 84.9319 106.532 85.0702 106.515C85.2165 106.502 85.3525 106.434 85.4502 106.325C85.5478 106.215 85.5997 106.072 85.595 105.925Z" fill="white"/>
<path d="M195.323 19.9487C195.372 19.4849 195.344 19.0162 195.24 18.5616C195.14 18.1611 194.984 17.7767 194.778 17.4196C194.402 16.7806 193.857 16.2575 193.203 15.9076C192.544 15.5784 191.818 15.4057 191.081 15.4029C190.344 15.4001 189.616 15.5673 188.954 15.8914C188.25 16.2305 187.645 16.7462 187.2 17.3884C186.754 18.0306 186.482 18.7773 186.411 19.5557C186.273 20.6281 186.519 21.7148 187.105 22.6235C187.795 23.6541 188.858 24.3774 190.071 24.6417C190.776 24.7771 191.504 24.7405 192.193 24.5348C192.882 24.3292 193.51 23.9606 194.026 23.4603C194.514 23.0052 194.902 22.4543 195.166 21.8421C195.321 21.5117 195.436 21.164 195.508 20.8064C195.551 20.6032 195.575 20.3966 195.58 20.1891C195.557 19.9165 195.431 19.6631 195.226 19.4817C195.103 19.3608 194.937 19.2931 194.764 19.2931C194.591 19.2931 194.425 19.3608 194.301 19.4817C194.151 19.6165 194.034 19.7853 193.962 19.9741C193.934 20.1267 193.919 20.2814 193.918 20.4365C193.918 20.3001 193.918 20.4365 193.918 20.4596C193.904 20.5266 193.892 20.5914 193.878 20.6584C193.846 20.8027 193.804 20.9447 193.753 21.0838C193.737 21.1346 193.719 21.1832 193.698 21.2341C193.744 21.1208 193.698 21.2341 193.682 21.2641C193.622 21.3843 193.562 21.4953 193.492 21.6201C193.423 21.745 193.377 21.8028 193.317 21.8929C193.229 22.0201 193.273 21.953 193.296 21.9253C193.247 21.9877 193.192 22.0501 193.138 22.1102C192.834 22.4715 192.449 22.7565 192.015 22.9425C191.651 23.1018 191.256 23.1761 190.859 23.1598C190.793 23.1598 190.726 23.1552 190.658 23.1459C190.508 23.1459 190.838 23.1852 190.589 23.1459C190.482 23.1251 190.378 23.1043 190.274 23.0766C190.17 23.0488 190.018 22.998 189.89 22.9517C189.877 22.9517 189.754 22.8916 189.856 22.9379C189.782 22.9055 189.71 22.8708 189.638 22.8315C189.241 22.6283 188.889 22.3458 188.605 22.0016C188.436 21.812 188.642 22.0571 188.554 21.9392C188.515 21.886 188.476 21.8305 188.441 21.7727C188.381 21.684 188.326 21.5922 188.277 21.4976C188.244 21.4398 188.214 21.3797 188.187 21.3196C188.124 21.1855 188.24 21.486 188.159 21.2479C188.115 21.1208 188.073 20.9936 188.041 20.8642C188.041 20.811 187.981 20.5313 188.002 20.6931C187.99 20.5891 187.981 20.485 187.974 20.3833C187.963 20.1962 187.963 20.0086 187.974 19.8215C187.974 19.7383 187.988 19.6528 187.995 19.5695C188.002 19.4863 188.032 19.4355 187.995 19.6135C187.995 19.5788 187.995 19.5418 188.011 19.5071C188.044 19.3345 188.088 19.164 188.14 18.9962C188.161 18.9315 188.187 18.8691 188.207 18.8043C188.261 18.6402 188.145 18.9269 188.207 18.8275C188.226 18.7905 188.242 18.7512 188.258 18.7142C188.327 18.5748 188.404 18.4397 188.489 18.3096L188.61 18.1293C188.718 17.9721 188.556 18.1848 188.633 18.0992C188.709 18.0137 188.841 17.868 188.956 17.7548C189.007 17.7062 189.058 17.66 189.114 17.6161L189.185 17.556C189.262 17.4843 189.026 17.6646 189.158 17.5768C189.289 17.4889 189.389 17.4103 189.527 17.3456C189.666 17.2808 189.759 17.2254 189.877 17.1653C189.994 17.1051 189.745 17.2092 189.844 17.1653C189.881 17.1653 189.916 17.1375 189.953 17.1236L190.17 17.0497C190.302 17.008 190.437 16.9732 190.572 16.9456C190.63 16.9318 190.69 16.9225 190.753 16.911C190.771 16.911 190.924 16.8901 190.79 16.911C190.656 16.9318 190.822 16.911 190.85 16.911C191.129 16.8936 191.41 16.8936 191.689 16.911C191.458 16.911 191.689 16.911 191.742 16.911L191.941 16.9549C192.08 16.9884 192.216 17.0301 192.35 17.0797L192.454 17.1213C192.364 17.0843 192.352 17.0728 192.454 17.1213C192.556 17.1699 192.591 17.1861 192.655 17.223C192.788 17.2984 192.916 17.381 193.039 17.4704C192.866 17.3502 193.088 17.5167 193.125 17.5513C193.162 17.586 193.249 17.6669 193.31 17.7293C193.37 17.7918 193.414 17.8496 193.467 17.9097C193.52 17.9698 193.538 18.0137 193.446 17.8796L193.529 17.9998C193.629 18.1477 193.719 18.3022 193.797 18.4622L193.844 18.557C193.911 18.6934 193.844 18.5385 193.857 18.5893C193.894 18.6818 193.929 18.7766 193.959 18.8737C194.092 19.2741 194.191 19.6847 194.257 20.1013C194.293 20.2318 194.375 20.3447 194.489 20.4188C194.602 20.4929 194.738 20.523 194.872 20.5035C194.999 20.4762 195.113 20.4063 195.195 20.3054C195.277 20.2045 195.322 20.0787 195.323 19.9487Z" fill="white"/>
<path d="M201.998 39.2825C200.021 42.371 200.516 46.4907 202.749 49.2996C203.333 50.0656 204.06 50.7109 204.89 51.1999C205.001 51.264 205.127 51.2977 205.255 51.2977C205.383 51.2977 205.509 51.264 205.62 51.1999C205.745 51.1302 205.846 51.0235 205.908 50.8943C205.97 50.7651 205.991 50.6199 205.967 50.4786C205.923 50.148 205.662 49.97 205.419 49.785C205.124 49.5608 204.841 49.32 204.573 49.0638C204.023 48.523 203.556 47.9046 203.186 47.2282C202.406 45.8202 202.089 44.2027 202.28 42.6045C202.388 41.6668 202.636 40.7505 203.015 39.8858C203.088 39.7508 203.107 39.5928 203.068 39.4442C203.029 39.2955 202.935 39.1674 202.804 39.086C202.669 39.0101 202.51 38.9897 202.361 39.0289C202.211 39.0682 202.082 39.1641 202.002 39.2963L201.998 39.2825Z" fill="white"/>
<path d="M62.8008 17.3987C64.2743 16.6644 65.9777 16.5398 67.5423 17.052C69.1745 17.5536 70.5269 18.6702 71.6389 19.9972C71.9602 20.3787 72.196 20.6908 72.4827 21.0999C72.6283 21.3034 72.7601 21.5161 72.9034 21.7218C73.1346 22.0686 73.3543 22.3599 73.8282 22.3784C73.9522 22.3803 74.0744 22.3489 74.1822 22.2875C74.2899 22.2261 74.3792 22.1369 74.4408 22.0293C74.5519 21.8337 74.5865 21.6039 74.5379 21.3843C74.489 21.2472 74.4246 21.1161 74.346 20.9936C74.2258 20.7624 74.0802 20.5682 73.9391 20.3625C73.6432 19.9302 73.3311 19.5117 72.9959 19.1095C72.3564 18.3403 71.6294 17.6483 70.8297 17.0473C69.2646 15.8752 67.288 15.1516 65.3161 15.288C64.1964 15.3351 63.1165 15.7168 62.2159 16.3838C62.0848 16.4658 61.99 16.5947 61.9509 16.7443C61.9117 16.8939 61.9313 17.0527 62.0055 17.1884C62.0859 17.3212 62.2149 17.4176 62.3651 17.4569C62.5153 17.4961 62.675 17.4753 62.8101 17.3987H62.8008Z" fill="white"/>
<path d="M172.462 100.231C170.275 98.1379 168.946 95.3052 168.735 92.2854C168.504 89.2362 169.385 86.0597 171.528 83.7895C172.648 82.5497 174.121 81.6831 175.749 81.3066C177.343 80.9562 179.011 81.2441 180.396 82.1088C181.005 82.5107 181.517 83.0439 181.894 83.6693C182.078 83.9634 182.227 84.2775 182.34 84.6056C182.402 84.7875 182.455 84.9724 182.5 85.1604C182.523 85.2529 182.541 85.3477 182.557 85.4425L182.578 85.5627C182.562 85.4586 182.578 85.6043 182.578 85.6413C182.613 85.9995 182.613 86.3603 182.578 86.7186C182.578 86.8018 182.513 87.0607 182.472 87.2133C182.446 87.3058 182.419 87.396 182.386 87.4861C182.372 87.5277 182.268 87.782 182.317 87.6734C182.249 87.8244 182.172 87.9711 182.086 88.1126C182.04 88.1889 181.991 88.2652 181.938 88.3438C181.885 88.4224 181.88 88.4293 181.848 88.4686C181.898 88.4039 181.848 88.4686 181.827 88.4894C181.707 88.6235 181.596 88.7576 181.457 88.8801C181.392 88.9426 181.325 89.0004 181.256 89.0582L181.166 89.1321C181.249 89.0674 181.143 89.1483 181.11 89.1714C180.971 89.2662 180.833 89.3564 180.687 89.4396C180.611 89.4835 180.53 89.5251 180.456 89.5644L180.352 89.6153C180.137 89.724 180.419 89.5922 180.292 89.643C180.126 89.709 179.957 89.7661 179.785 89.8141C179.7 89.8372 179.612 89.858 179.527 89.8765C179.48 89.8765 179.226 89.9251 179.36 89.9089C179.198 89.9285 179.034 89.9378 178.87 89.9366H178.606L178.456 89.9228C178.539 89.9228 178.495 89.9228 178.44 89.9228C178.266 89.8929 178.093 89.8512 177.924 89.7979C177.853 89.7748 177.779 89.7494 177.709 89.7193C177.811 89.7609 177.684 89.7078 177.672 89.7008L177.527 89.6292C176.913 89.3022 176.401 88.8128 176.047 88.2143C175.474 87.2333 175.145 86.1288 175.088 84.994C175.061 84.5652 175.061 84.1351 175.088 83.7063C175.148 82.8703 175.311 82.0449 175.573 81.2488C176.093 79.6387 177.02 78.1901 178.264 77.0436C179.521 75.9146 181.041 75.1196 182.685 74.7318C184.288 74.318 185.975 74.354 187.56 74.8359C187.916 74.9426 188.259 75.09 188.582 75.2751C188.758 75.3745 188.931 75.4809 189.095 75.5964L189.211 75.682C189.301 75.7536 189.386 75.8276 189.47 75.9132C189.744 76.1512 189.975 76.4352 190.152 76.7524C190.193 76.8286 190.23 76.9072 190.272 76.9835C190.341 77.113 190.258 76.928 190.309 77.0668C190.374 77.2431 190.429 77.4229 190.473 77.6054C190.492 77.6909 190.508 77.7788 190.522 77.8643C190.496 77.7094 190.522 77.936 190.533 77.9845C190.546 78.1708 190.546 78.3577 190.533 78.544C190.533 78.581 190.533 78.618 190.533 78.655C190.533 78.7844 190.556 78.5301 190.533 78.655C190.533 78.729 190.508 78.8006 190.492 78.8723C190.452 79.0504 190.4 79.2258 190.337 79.3971C190.39 79.2514 190.309 79.4526 190.286 79.4965C190.263 79.5404 190.205 79.6444 190.161 79.7138C190.14 79.7485 190.015 79.9219 190.059 79.8664C190.103 79.8109 190.038 79.8872 190.031 79.8941C189.99 79.938 189.953 79.9843 189.909 80.0259C189.865 80.0675 189.786 80.1438 189.722 80.197C189.828 80.1091 189.673 80.2293 189.636 80.2524C189.49 80.3567 189.326 80.4349 189.153 80.4836C189.055 80.5152 188.955 80.5415 188.855 80.5622L188.723 80.5877C188.58 80.6085 188.822 80.5877 188.677 80.5877C188.454 80.6073 188.229 80.6073 188.006 80.5877C188.101 80.5877 187.895 80.5692 187.868 80.5622C187.764 80.5414 187.662 80.5183 187.56 80.4882C187.381 80.4429 187.207 80.377 187.042 80.2917C186.342 79.9173 185.749 79.3697 185.32 78.7012C184.351 77.2187 183.829 75.4882 183.817 73.7169C183.796 72.0733 184.2 70.4521 184.991 69.011C185.781 67.57 186.932 66.3583 188.33 65.4938C188.672 65.281 189.027 65.0896 189.393 64.9205L189.897 64.6893C190.059 64.6084 190.226 64.5381 190.397 64.4789C191.275 64.1992 190.898 62.8098 190.013 63.0918C189.534 63.2246 189.064 63.3875 188.605 63.5796C188.213 63.7598 187.833 63.9652 187.468 64.1946C186.665 64.6955 185.928 65.2951 185.274 65.9793C183.917 67.3886 182.964 69.1363 182.513 71.0399C182.04 73.0869 182.147 75.2254 182.823 77.2147C183.503 79.1636 184.721 81.0778 186.702 81.8846C188.524 82.6267 190.864 82.0695 191.747 80.2039C192.12 79.3803 192.248 78.4665 192.115 77.5721C191.981 76.6777 191.593 75.8408 190.995 75.1618C189.712 73.673 187.676 73.0373 185.771 72.917C183.792 72.8052 181.817 73.2032 180.035 74.073C176.392 75.8276 173.987 79.4664 173.618 83.4566C173.444 85.2945 173.726 87.2526 174.667 88.8593C175.608 90.466 177.226 91.5688 179.101 91.4763C179.985 91.4278 180.845 91.1646 181.604 90.7094C182.364 90.2542 183.001 89.6208 183.461 88.864C184.432 87.2295 184.328 85.1997 183.558 83.5121C183.148 82.6559 182.554 81.901 181.817 81.3014C181.081 80.7019 180.222 80.2727 179.3 80.0444C177.383 79.5642 175.358 79.7873 173.592 80.6732C170.309 82.2799 168.106 85.8147 167.581 89.3656C167.068 92.7732 167.813 96.4375 169.87 99.2371C170.373 99.9277 170.946 100.564 171.581 101.135C172.189 101.678 173.084 100.798 172.48 100.236L172.462 100.231Z" fill="white"/>
<path d="M206.873 108.602C206.991 109.064 207.029 109.542 206.986 110.017C206.986 110.08 206.986 110.142 206.97 110.207C206.956 110.348 207 110.04 206.97 110.281C206.949 110.408 206.922 110.53 206.891 110.655C206.861 110.78 206.836 110.886 206.799 110.988C206.78 111.048 206.76 111.108 206.739 111.171C206.739 111.171 206.656 111.381 206.697 111.279C206.597 111.515 206.475 111.741 206.334 111.954C206.221 112.14 206.085 112.311 205.93 112.463C205.842 112.556 205.749 112.643 205.652 112.727C205.615 112.761 205.576 112.794 205.537 112.824C205.622 112.757 205.495 112.854 205.474 112.87C205.38 112.935 205.285 112.997 205.185 113.055L204.984 113.163C204.963 113.163 204.772 113.263 204.882 113.214C204.671 113.302 204.451 113.369 204.226 113.413C204.15 113.429 204.076 113.443 203.995 113.452C204.032 113.452 204.122 113.452 203.969 113.452C203.817 113.452 203.666 113.473 203.507 113.471C203.391 113.471 203.276 113.459 203.162 113.45C203.13 113.45 202.966 113.425 203.1 113.45L202.95 113.425C202.686 113.372 202.428 113.299 202.175 113.207C202.145 113.207 201.995 113.136 202.111 113.184C202.064 113.166 202.018 113.143 201.972 113.122C201.856 113.066 201.741 113.006 201.634 112.942C201.528 112.877 201.403 112.807 201.311 112.733C201.268 112.705 201.228 112.675 201.188 112.643C201.292 112.727 201.103 112.567 201.082 112.549C200.9 112.39 200.733 112.215 200.583 112.026C200.661 112.128 200.562 111.998 200.546 111.973L200.439 111.813C200.372 111.705 200.31 111.594 200.252 111.478C200.229 111.432 200.106 111.138 200.173 111.312C200.136 111.217 200.099 111.12 200.067 111.02C200.004 110.833 199.954 110.641 199.917 110.447L199.889 110.278C199.889 110.301 199.905 110.463 199.889 110.32C199.889 110.23 199.873 110.137 199.868 110.045C199.868 109.865 199.868 109.689 199.889 109.508C199.91 109.328 199.859 109.647 199.889 109.536C199.901 109.495 199.903 109.451 199.912 109.409C199.928 109.324 199.947 109.238 199.97 109.155C200.011 108.988 200.076 108.831 200.132 108.669C200.055 108.9 200.15 108.635 200.178 108.581C200.206 108.528 200.247 108.445 200.287 108.378C200.374 108.223 200.481 108.082 200.578 107.934C200.451 108.126 200.608 107.902 200.647 107.858C200.687 107.814 200.747 107.742 200.8 107.687C200.924 107.559 201.054 107.437 201.191 107.322L201.269 107.257C201.401 107.146 201.156 107.331 201.251 107.273C201.345 107.215 201.375 107.183 201.438 107.139C201.594 107.035 201.756 106.94 201.923 106.855L202.129 106.755C202.178 106.732 202.298 106.688 202.104 106.755L202.198 106.718C202.365 106.656 202.534 106.598 202.705 106.552C202.876 106.505 203.017 106.485 203.167 106.452C203.317 106.42 203.015 106.464 203.13 106.452L203.255 106.438C203.345 106.438 203.438 106.425 203.53 106.422C203.714 106.42 203.897 106.427 204.08 106.445C204.168 106.445 204.207 106.413 204.039 106.445C204.089 106.447 204.139 106.456 204.187 106.471C204.284 106.489 204.381 106.512 204.478 106.538C204.575 106.563 204.64 106.586 204.709 106.614L204.852 106.665C205 106.716 204.695 106.582 204.852 106.665C205.01 106.748 205.19 106.838 205.349 106.945L205.435 107.002L205.521 107.067L205.46 107.021C205.532 107.09 205.613 107.148 205.692 107.217C205.77 107.287 205.851 107.377 205.923 107.46C205.994 107.543 206.131 107.726 206.013 107.562C206.304 107.964 206.505 108.413 206.767 108.833C206.862 108.995 207.012 109.117 207.191 109.176C207.369 109.235 207.562 109.228 207.735 109.155C207.908 109.082 208.049 108.949 208.131 108.78C208.213 108.611 208.231 108.418 208.181 108.237C207.994 107.217 207.21 106.284 206.397 105.68C205.697 105.176 204.868 104.881 204.006 104.829C203.172 104.788 202.34 104.935 201.57 105.258C200.8 105.581 200.113 106.073 199.558 106.697C198.951 107.367 198.543 108.192 198.38 109.081C198.216 109.97 198.304 110.886 198.634 111.728C199.081 112.894 199.948 113.85 201.066 114.407C202.201 114.987 203.506 115.138 204.744 114.833C205.415 114.644 206.038 114.313 206.571 113.864C207.104 113.415 207.535 112.857 207.835 112.227C208.153 111.584 208.338 110.884 208.378 110.167C208.402 109.467 208.252 108.771 207.941 108.142C207.675 107.52 206.695 107.962 206.873 108.602Z" fill="white"/>
<path d="M50.5967 100.865C50.8279 101.154 51.2186 101.295 51.5468 101.466C51.8751 101.637 52.1641 101.792 52.46 101.979C54.241 103.069 55.6573 104.664 56.5288 106.561C56.6764 106.885 56.8053 107.218 56.9149 107.557C57.0559 107.971 57.1252 108.452 57.3379 108.836C57.4128 108.961 57.5264 109.058 57.6615 109.113C57.7966 109.169 57.9459 109.178 58.087 109.141C58.2248 109.098 58.3458 109.014 58.4333 108.899C58.5207 108.784 58.5702 108.645 58.5748 108.501C58.6164 108.119 58.4569 107.657 58.3436 107.289C58.2399 106.926 58.1116 106.571 57.9598 106.226C57.6578 105.494 57.2797 104.797 56.8316 104.145C55.9281 102.842 54.7647 101.74 53.4148 100.909C53.044 100.685 52.6577 100.488 52.2589 100.319C51.7965 100.123 51.3157 99.9237 50.8117 100.028C50.4117 100.111 50.3655 100.599 50.5805 100.867L50.5967 100.865Z" fill="white"/>
<path d="M117.827 12.9092C118.268 13.4309 118.84 13.8247 119.485 14.0495C120.13 14.2744 120.824 14.3221 121.493 14.1877C122.131 14.0534 122.725 13.7608 123.22 13.3369C123.745 12.9023 124.224 12.2897 124.284 11.5961C124.328 11.0806 123.59 10.8101 123.264 11.1731C122.938 11.536 122.739 11.9452 122.339 12.292C122.006 12.578 121.61 12.7822 121.184 12.8884C120.723 12.984 120.247 12.9679 119.794 12.8416C119.341 12.7154 118.925 12.4825 118.58 12.1625C118.083 11.6863 117.404 12.3937 117.834 12.9092H117.827Z" fill="white"/>
<path d="M178.026 114.324C177.987 114.273 177.945 114.222 177.91 114.169L177.857 114.086L177.783 113.989C177.755 113.956 177.72 113.928 177.682 113.908C177.642 113.889 177.602 113.873 177.561 113.859C177.522 113.85 177.482 113.845 177.441 113.843C177.4 113.844 177.359 113.85 177.319 113.859C177.193 113.895 177.087 113.978 177.023 114.091L176.972 114.171C176.937 114.225 176.893 114.275 176.854 114.329C176.792 114.434 176.759 114.553 176.759 114.675C176.759 114.797 176.792 114.917 176.854 115.022C176.913 115.125 176.999 115.21 177.102 115.269C177.205 115.329 177.321 115.36 177.44 115.36C177.559 115.36 177.675 115.329 177.778 115.269C177.881 115.21 177.966 115.125 178.026 115.022C178.088 114.917 178.121 114.797 178.121 114.675C178.121 114.553 178.088 114.434 178.026 114.329V114.324Z" fill="white"/>
<path d="M209.807 79.5704C210.456 79.5704 210.459 78.5579 209.807 78.5579C209.155 78.5579 209.155 79.5704 209.807 79.5704Z" fill="white"/>
<path d="M180.216 38.7022C180.302 38.7022 180.385 38.6678 180.446 38.6067C180.507 38.5456 180.542 38.4627 180.542 38.3762C180.542 38.2897 180.507 38.2068 180.446 38.1457C180.385 38.0846 180.302 38.0502 180.216 38.0502C180.129 38.0502 180.046 38.0846 179.985 38.1457C179.924 38.2068 179.89 38.2897 179.89 38.3762C179.89 38.4627 179.924 38.5456 179.985 38.6067C180.046 38.6678 180.129 38.7022 180.216 38.7022Z" fill="white"/>
<path d="M46.5925 20.8457C47.2375 20.8457 47.2375 19.8424 46.5925 19.8424C45.9475 19.8424 45.9452 20.8457 46.5925 20.8457Z" fill="white"/>
<path d="M103.001 104.187C103.794 104.187 103.796 102.952 103.001 102.952C102.206 102.952 102.204 104.187 103.001 104.187Z" fill="white"/>
<path d="M143.633 23.2939C144.362 22.6115 145.176 22.025 146.053 21.5485C146.913 21.103 147.843 20.8082 148.802 20.677C150.296 20.481 151.816 20.6741 153.213 21.2375C154.611 21.8008 155.84 22.7154 156.78 23.8927C157.032 24.2048 157.569 24.1562 157.832 23.8927C157.968 23.7511 158.043 23.5627 158.043 23.3668C158.043 23.1708 157.968 22.9824 157.832 22.8408C156.421 21.1546 154.501 19.9725 152.36 19.4725C150.156 18.9814 147.851 19.2477 145.818 20.2285C144.661 20.7424 143.638 21.5171 142.831 22.4917C142.724 22.5981 142.665 22.7424 142.665 22.8928C142.665 23.0433 142.724 23.1876 142.831 23.2939C142.937 23.4003 143.081 23.4601 143.232 23.4601C143.382 23.4601 143.527 23.4003 143.633 23.2939Z" fill="white"/>
<path d="M160.167 28.5764H160.209L160.1 28.5301L160.155 28.5556C160.21 28.5838 160.272 28.5973 160.333 28.5949L160.454 28.5787C160.492 28.5653 160.529 28.5491 160.565 28.5301L160.456 28.5764C160.498 28.5744 160.538 28.5617 160.574 28.5394C160.65 28.5133 160.72 28.4689 160.775 28.4099C160.835 28.3538 160.879 28.2828 160.902 28.2042C160.938 28.1325 160.956 28.0532 160.955 27.973L160.932 27.8065C160.915 27.7271 160.876 27.6538 160.821 27.5939C160.777 27.527 160.716 27.4722 160.646 27.4343C160.498 27.3577 160.328 27.3348 160.165 27.3696L160.014 27.4343C159.944 27.4722 159.883 27.527 159.839 27.5939C159.784 27.6538 159.745 27.7271 159.728 27.8065L159.705 27.973C159.705 28.0835 159.734 28.192 159.79 28.2874L159.887 28.4146C159.964 28.4917 160.06 28.5475 160.165 28.5764H160.167Z" fill="white"/>
<path d="M163.151 38.8247C163.172 39.257 163.151 39.6778 163.138 40.1101C163.124 40.5424 163.138 41.0348 163.138 41.4972C163.138 42.3918 163.188 43.2888 163.207 44.1835C163.242 45.9775 163.207 47.7737 163.114 49.5631C163.015 51.2993 162.865 53.0308 162.631 54.7531C162.4 56.5332 162.051 58.2994 161.706 60.0703C161.515 61.0528 161.279 62.04 161.013 63.004C160.874 63.4879 160.732 63.9696 160.585 64.4489C160.474 64.9357 160.309 65.4087 160.093 65.8591C159.732 66.4971 160.86 66.874 160.957 66.2243C161.052 65.7851 161.185 65.355 161.355 64.939C161.498 64.5151 161.636 64.0882 161.769 63.6582C162.037 62.7844 162.315 61.9105 162.553 61.0274C163.029 59.275 163.431 57.5204 163.732 55.7287C164.35 52.1329 164.614 48.4851 164.52 44.8377C164.49 43.8344 164.451 42.8265 164.33 41.8324C164.268 41.3053 164.173 40.7782 164.085 40.2557C163.998 39.7332 163.838 39.257 163.741 38.753C163.678 38.4201 163.138 38.4964 163.151 38.8316V38.8247Z" fill="white"/>
<path d="M95.5703 33.4659C96.1991 33.2116 96.8487 33.0197 97.4914 32.8047C98.1414 32.587 98.8078 32.4215 99.4842 32.3099C100.744 32.1146 102.025 32.1146 103.285 32.3099C105.682 32.69 107.907 33.7925 109.661 35.4702C110.636 36.387 111.442 37.4675 112.044 38.6628C112.151 38.8468 112.327 38.9807 112.533 39.0351C112.738 39.0895 112.957 39.0599 113.141 38.9529C113.325 38.846 113.459 38.6703 113.514 38.4646C113.568 38.2588 113.538 38.0399 113.431 37.856C112.203 35.5049 110.309 33.5673 107.987 32.2845C105.457 30.9038 102.54 30.4036 99.6946 30.8627C98.9211 30.985 98.1598 31.1754 97.4197 31.4315C96.6297 31.7133 95.8857 32.1107 95.212 32.6105C95.1147 32.6701 95.0419 32.7624 95.0067 32.871C94.9715 32.9795 94.9763 33.097 95.0201 33.2023C95.0626 33.3087 95.1432 33.3956 95.2461 33.446C95.3491 33.4964 95.4671 33.5068 95.5772 33.4751L95.5703 33.4659Z" fill="white"/>
<path d="M115.716 42.2416C116.522 42.2416 116.525 40.9839 115.716 40.9839C114.906 40.9839 114.904 42.2416 115.716 42.2416Z" fill="white"/>
</svg>
