<svg width="249" height="196" viewBox="0 0 249 196" fill="none" xmlns="http://www.w3.org/2000/svg">
<path d="M20.7051 135.393C20.6738 135.297 20.6402 135.201 20.6 135.107C20.4724 134.539 20.2229 134.005 19.8687 133.543C19.8445 133.356 19.8041 133.171 19.7479 132.991C19.1888 131.268 17.3012 129.778 15.4092 130.223C15.5811 129.575 15.5839 128.895 15.4175 128.246C15.2511 127.597 14.921 127.001 14.4587 126.516C16.1494 125.636 16.7354 123.076 15.7223 121.507C15.2118 120.681 14.4018 120.084 13.4613 119.841C12.5207 119.597 11.5224 119.726 10.6746 120.2C7.11416 122.119 3.54254 124.023 0 125.984C0.563586 132.439 2.63007 138.538 6.37837 143.831C7.64196 143.429 8.90556 143.027 10.1803 142.634C11.5558 142.205 12.9267 141.776 14.2909 141.32C15.7983 140.815 17.7328 140.464 19.03 139.533C20.3271 138.601 21.2463 137.033 20.7051 135.393Z" fill="#4A5CFF"/>
<path d="M56.0454 142.513C57.025 143.903 57.9509 145.326 58.794 146.801C60.402 149.62 61.7596 152.549 62.5781 155.697C63.5062 159.258 63.5644 162.923 63.6359 166.582C63.7439 170.302 63.5705 174.026 63.1171 177.72C62.5736 181.853 61.8624 186.14 60.5496 190.108C64.3337 191.087 68.1193 192.063 71.9064 193.035C75.8246 194.032 79.7496 194.99 83.6634 196C83.7451 195.869 83.8055 195.726 83.8423 195.575C84.8979 191.438 85.7273 187.247 86.327 183.019C86.9241 178.774 87.4452 174.409 87.3782 170.103C87.2596 161.873 82.2343 155.612 78.3764 148.76C77.2805 146.88 76.3698 144.898 75.6569 142.842C75.3043 141.806 75.0344 140.745 74.8495 139.667C74.6684 138.55 74.6639 137.397 74.3396 136.315C74.1383 135.645 73.038 135.364 72.7048 136.092C72.5308 136.479 72.4032 136.884 72.3246 137.301C71.2936 136.979 69.945 137.158 68.9542 137.147C67.5229 137.131 66.0916 137.147 64.6625 137.209C61.8356 137.332 58.9573 137.819 56.1304 137.542C55.998 137.527 55.864 137.535 55.7346 137.567C55.4706 137.327 55.1928 137.103 54.9026 136.896C53.8492 136.146 52.8294 137.567 53.2856 138.512C53.9588 139.939 55.1307 141.217 56.0454 142.513Z" fill="#4A5CFF"/>
<path d="M156.328 32.8428C156.456 31.6944 156.478 30.5393 156.59 29.3887C156.687 28.306 156.88 27.234 157.165 26.1849C157.728 24.1473 158.779 22.246 160.519 21.0596C162.532 19.69 165.066 19.089 166.699 17.1743C168.331 15.2596 168.812 12.7059 168.839 10.2349C168.872 7.12264 168.168 3.93666 169.038 0.880272C169.293 -0.0134092 167.92 -0.386521 167.658 0.500458C166.835 3.36247 167.305 6.32056 167.376 9.24066C167.421 10.4051 167.338 11.5709 167.128 12.7171C166.934 13.8508 166.491 14.9275 165.831 15.8695C165.196 16.7476 164.229 17.3955 163.214 17.9384C162.154 18.5126 161.025 18.9907 160.009 19.661C158.026 20.9457 156.726 22.9028 155.999 25.1258C155.608 26.383 155.35 27.6778 155.23 28.9888C155.074 30.2716 155.057 31.5676 155.181 32.854C155.19 32.9998 155.254 33.1366 155.361 33.2366C155.467 33.3367 155.608 33.3923 155.754 33.3923C155.901 33.3923 156.041 33.3367 156.148 33.2366C156.255 33.1366 156.319 32.9998 156.328 32.854V32.8428Z" fill="#333333"/>
<path d="M170.693 51.9252C171.865 49.6709 172.896 47.3316 174.417 45.2806C175.759 43.4709 177.512 41.8824 179.608 40.9999C180.651 40.5554 181.774 40.3274 182.909 40.3296C184.204 40.3296 185.483 40.5776 186.762 40.7474C188.093 40.9239 189.426 41.029 190.752 40.7743C191.656 40.5905 192.521 40.2503 193.308 39.7689C194.874 38.8305 196.066 37.4341 197.141 35.9908C197.683 35.2647 198.195 34.514 198.707 33.7566C198.969 33.3813 199.228 33.0037 199.494 32.6395C199.733 32.3066 200.056 31.8687 200.25 31.623C200.809 30.8932 201.428 30.211 202.1 29.5831C202.821 28.9187 203.639 28.3673 204.526 27.9477C206.617 26.9445 208.999 26.6675 211.265 26.4195C215.38 25.9727 220.228 25.3538 222.937 21.8193C223.236 21.4309 223.495 21.0132 223.711 20.5726C223.802 20.4077 223.826 20.2141 223.778 20.0318C223.73 19.8496 223.614 19.6928 223.453 19.594C223.289 19.5005 223.094 19.4751 222.911 19.5231C222.728 19.5711 222.571 19.6888 222.474 19.8509C222.031 20.6937 221.416 21.4343 220.669 22.0248C220.309 22.3156 219.926 22.5771 219.524 22.8068C219.32 22.9252 219.112 23.0302 218.902 23.1419C218.795 23.1955 218.69 23.2469 218.58 23.2961L218.401 23.3787L218.287 23.4301C216.348 24.2523 214.192 24.5852 212.195 24.8488C209.836 25.1594 207.431 25.4141 205.179 26.2229C203.201 26.9344 201.439 28.1432 200.064 29.7328C198.821 31.1471 197.797 32.7311 196.71 34.2705C195.732 35.6669 194.739 37.023 193.342 38.1133C193.413 38.0552 193.203 38.2161 193.163 38.2429C193.082 38.301 193.002 38.3568 192.919 38.4105C192.738 38.5333 192.55 38.6473 192.36 38.7523C192.17 38.8573 191.989 38.9467 191.799 39.0316C191.783 39.0316 191.68 39.083 191.776 39.0427L191.664 39.0986C191.539 39.1478 191.412 39.1924 191.284 39.2349C190.179 39.5641 189.02 39.6727 187.874 39.5544C186.57 39.4628 185.279 39.2282 183.971 39.1522C182.733 39.0613 181.489 39.1829 180.292 39.5119C175.504 40.9016 172.531 45.3722 170.452 49.6083C170.174 50.1735 169.906 50.741 169.651 51.3175C169.576 51.4572 169.558 51.6201 169.599 51.7729C169.641 51.9257 169.739 52.0569 169.875 52.1396C170.013 52.2175 170.177 52.2378 170.331 52.196C170.484 52.1542 170.615 52.0537 170.695 51.9162L170.693 51.9252Z" fill="#333333"/>
<path d="M183.774 73.9879C184.317 73.129 184.965 72.3404 185.702 71.6397C186.416 70.9236 187.231 70.3161 188.121 69.8367C189.871 68.8619 191.88 68.4559 193.871 68.6749C196.356 68.9944 198.704 70.2858 201.272 70.0736C203.757 69.868 205.861 68.456 207.679 66.8496C209.676 65.0868 211.441 63.0515 213.856 61.836C214.015 61.7402 214.131 61.5863 214.178 61.4069C214.225 61.2275 214.2 61.0368 214.109 60.8753C214.012 60.7182 213.857 60.6045 213.678 60.558C213.499 60.5114 213.309 60.5354 213.147 60.6251C210.855 61.6126 209.122 63.505 207.333 65.1896C205.687 66.7535 203.792 68.2929 201.496 68.6548C200.299 68.8447 199.049 68.5923 197.877 68.2951C196.616 67.9756 195.374 67.5981 194.075 67.4774C192.427 67.3341 190.768 67.5488 189.212 68.1069C187.655 68.6649 186.238 69.5531 185.058 70.7103C184.217 71.57 183.561 72.5927 183.132 73.7153C182.978 74.0951 183.579 74.3208 183.776 73.9879H183.774Z" fill="#333333"/>
<path d="M186.744 102.376C187.674 101.634 188.649 100.955 189.613 100.255C190.567 99.5423 191.558 98.8793 192.581 98.2692C194.516 97.1521 196.656 96.3411 198.904 96.2271C200.997 96.1221 203.059 96.6293 204.718 97.9654C206.255 99.2076 207.469 100.812 209.144 101.891C210.023 102.467 211.033 102.813 212.081 102.898C213.311 102.99 214.519 102.642 215.621 102.125C217.739 101.136 219.345 99.4086 221.235 98.0793C222.104 97.433 223.085 96.9514 224.129 96.6583C225.237 96.395 226.388 96.3608 227.51 96.5578C229.912 96.951 232.088 98.0748 234.253 99.1316C236.418 100.188 238.63 101.185 241.045 101.442C243.058 101.665 245.294 101.337 246.992 100.148C247.221 99.9998 247.436 99.8292 247.632 99.6388C247.815 99.4242 247.971 99.1878 248.097 98.935C248.396 98.3899 247.775 97.6816 247.202 98.0413C247.01 98.1664 246.8 98.2647 246.609 98.3854C246.522 98.4412 246.455 98.5083 246.386 98.5686C246.464 98.5083 246.35 98.5954 246.343 98.5999C246.227 98.687 246.106 98.7674 245.985 98.8434C245.789 98.9685 245.585 99.078 245.377 99.183C245.274 99.2344 245.169 99.2835 245.062 99.3282C245.098 99.3148 245.174 99.288 245.017 99.3461L244.811 99.4221C243.911 99.7474 242.957 99.899 242 99.8689C240.986 99.8542 239.979 99.6908 239.012 99.3841C237.877 99.0302 236.769 98.5956 235.696 98.0838C233.459 97.0493 231.238 95.8786 228.812 95.3223C226.385 94.766 223.907 94.8598 221.68 96.0663C219.667 97.1566 218.101 98.8836 216.182 100.115C215.236 100.718 214.19 101.232 213.067 101.393C212.12 101.517 211.158 101.339 210.318 100.883C208.668 99.9895 207.451 98.4524 205.989 97.2549C205.161 96.5567 204.223 95.9996 203.213 95.606C202.163 95.2211 201.057 95.0069 199.939 94.9715C197.638 94.8777 195.377 95.4831 193.321 96.4885C192.257 97.0176 191.236 97.6302 190.269 98.3206C189.27 99.0017 188.328 99.7631 187.453 100.597C187.033 101.011 186.581 101.384 186.136 101.768C185.691 102.152 186.321 102.713 186.744 102.376Z" fill="#333333"/>
<path d="M186.153 121.009C186.491 120.735 186.849 120.486 187.222 120.263C187.586 120.042 187.965 119.849 188.356 119.684C189.168 119.359 190.034 119.191 190.908 119.188C191.782 119.169 192.651 119.321 193.467 119.635C194.253 119.934 194.97 120.39 195.573 120.975C197.125 122.526 197.904 124.76 199.559 126.282C201.272 127.846 203.553 128.605 205.843 128.777C208.784 129.001 211.692 128.201 214.496 127.419C215.5 127.137 215.075 125.58 214.064 125.855C211.555 126.541 208.999 127.26 206.378 127.195C204.325 127.137 202.14 126.525 200.623 125.104C199.805 124.34 199.257 123.476 198.64 122.53C198.022 121.585 197.374 120.598 196.531 119.816C195.056 118.499 193.141 117.781 191.163 117.805C188.987 117.805 186.657 118.605 185.348 120.417C185.287 120.523 185.266 120.648 185.291 120.768C185.315 120.888 185.382 120.995 185.48 121.069C185.578 121.144 185.7 121.18 185.823 121.173C185.946 121.166 186.063 121.115 186.151 121.029L186.153 121.009Z" fill="#333333"/>
<path d="M153.796 139.191C153.099 139.144 152.399 139.119 151.696 139.11C151.07 138.516 150.48 137.902 149.918 137.269C150.277 136.009 150.133 134.66 149.518 133.503C146.624 128.252 143.518 123.062 140.917 117.655C140.666 117.135 140.422 116.608 140.19 116.076C140.143 115.953 140.02 115.651 139.966 115.535C139.843 115.218 139.725 114.898 139.611 114.579C139.11 113.178 138.682 111.753 138.233 110.334C137.322 107.36 136.123 104.481 134.655 101.739C134.011 100.561 133.335 99.3997 132.729 98.2022C132.61 97.9631 132.492 97.7218 132.376 97.4805C132.259 97.2392 131.615 96.2674 132.226 97.161C131.837 96.5913 131.702 95.6485 131.524 94.9916C130.786 92.2704 130.385 89.4843 129.352 86.8479C129.33 86.7519 129.309 86.658 129.285 86.562C127.719 80.1677 125.429 73.9834 123.3 67.7634C120.956 60.92 118.711 53.9359 118.006 46.7038C117.978 46.2649 117.846 45.8391 117.62 45.4618C117.394 45.0845 117.081 44.7665 116.707 44.5344L117.237 44.1277C119.697 42.2443 117.094 38.7969 114.62 40.7407C92.5265 58.0781 69.0124 73.4919 46.384 90.1166C39.9967 94.8084 33.6787 99.5896 27.515 104.574C26.8441 105.11 26.8597 105.915 27.2086 106.585C26.6652 109.266 27.1729 112.423 27.5553 115.064C27.9815 117.936 28.6192 120.773 29.463 123.551C31.1754 129.175 33.6431 134.54 36.7986 139.501C37.4695 140.547 38.5877 140.67 39.4823 140.283C40.7973 140.391 42.1124 140.364 43.4475 140.375C45.3694 140.39 47.2898 140.401 49.2086 140.409C52.901 140.409 56.5889 140.471 60.288 140.538C67.5297 140.672 74.7668 140.947 82.0018 141.282C96.4783 141.952 110.944 142.895 125.431 143.346C129.569 143.474 133.706 143.57 137.844 143.557C139.461 143.557 141.098 143.594 142.719 143.505C144.41 143.677 146.181 143.467 147.863 143.447C149.847 143.425 151.815 143.539 153.794 143.632C156.679 143.78 156.646 139.372 153.796 139.191Z" fill="#FFABAB"/>
<path d="M42.4075 133.382C41.7799 133.115 41.1059 132.975 40.424 132.969C39.7421 132.963 39.0656 133.091 38.4333 133.346C38.4087 133.208 38.3797 133.067 38.3439 132.928C38.2343 132.482 38.1672 132.048 38.0844 131.606C37.8809 130.516 37.163 129.595 36.2483 128.925C35.9553 128.429 35.6601 127.933 35.3873 127.421C35.117 126.916 34.7345 126.478 34.269 126.143C34.0633 125.734 33.8642 125.321 33.6585 124.908L33.6093 124.807C33.4572 124.403 33.2984 124.003 33.162 123.594C32.9138 122.892 32.6946 122.18 32.4911 121.463C32.292 118.65 31.8514 115.846 31.4444 113.071C31.308 112.144 30.5029 111.038 29.6687 110.338L29.6217 110.267C30.4469 109.116 30.7958 107.552 30.3731 106.245C29.7022 104.159 28.0092 103.01 25.8689 102.82C23.5274 102.61 20.8548 103.794 18.9762 105.108C16.8851 106.572 15.2234 108.504 13.8659 110.669C11.2671 114.838 9.72396 120.158 9.61661 125.064C9.48913 130.609 11.6764 135.882 15.4113 139.935C19.2334 144.082 24.5807 146.367 30.0936 147.06C36.501 147.862 45.0488 145.889 45.6638 138.199C45.8203 136.135 44.1922 134.128 42.4075 133.382Z" fill="#FFABAB"/>
<path d="M49.0296 140.634C47.9114 139.517 46.8491 138.375 45.827 137.185C45.3149 136.588 44.8296 135.971 44.3309 135.366L44.2772 135.303C44.2459 135.259 44.2146 135.214 44.1855 135.176C43.9328 134.836 43.6845 134.506 43.4385 134.153C41.5782 131.549 39.9084 128.815 38.4423 125.971C37.7534 124.631 37.1675 123.272 36.5323 121.918L36.3646 121.498C36.2304 121.163 36.1007 120.828 35.9732 120.484C35.675 119.693 35.3932 118.896 35.1279 118.093C34.1593 115.05 33.3869 111.948 32.8154 108.806C32.6454 107.923 32.4888 107.041 32.3546 106.151C32.3546 106.252 32.3546 106.232 32.3189 105.908C32.3189 105.866 32.3189 105.821 32.3032 105.778C32.2876 105.736 32.2876 105.662 32.2764 105.606C32.2764 105.638 32.2898 105.673 32.2965 105.711C32.2562 105.356 32.216 105.001 32.178 104.646C32.0863 103.835 31.9543 103.03 31.8447 102.226C31.827 102.137 31.8158 102.046 31.8112 101.956C31.8112 101.871 31.7888 101.788 31.7709 101.705C31.7709 101.757 31.7911 101.813 31.8 101.869C31.554 99.6902 31.0754 98.0168 29.1342 96.7299C27.9041 95.9166 25.9606 95.9233 24.7328 96.7299C22.1251 98.4413 22.0178 101.301 21.944 104.103C21.9349 105.728 22.029 107.351 22.2257 108.964C22.609 112.68 23.3405 116.351 24.4108 119.93C26.4012 126.601 29.3913 133.074 33.3991 138.775C35.7689 142.179 38.4428 145.361 41.3877 148.282C43.4005 150.268 47.0482 150.445 49.0319 148.282C51.0156 146.119 51.1655 142.766 49.0296 140.634Z" fill="#FF4343"/>
<path d="M32.3545 106.125V106.136C32.3545 106.044 32.3255 105.85 32.2964 105.689V105.756C32.321 105.888 32.3366 106.011 32.3545 106.125Z" fill="#FF4343"/>
<path d="M31.809 101.936L31.8426 102.206C31.8426 102.163 31.8225 102.005 31.7979 101.848C31.7979 101.873 31.7979 101.895 31.7979 101.92L31.809 101.936Z" fill="#FF4343"/>
<path d="M175.673 142.145C171.697 125.779 168.293 109.284 164.437 92.8893C163.307 87.9399 161.699 83.1116 159.636 78.472C159.175 77.442 158.213 76.4925 157.129 75.7597C158.379 73.302 158.471 70.2501 156.918 67.7992C151.846 59.7987 147.417 51.409 143.672 42.7091C142.462 39.7488 141.38 36.7147 139.939 33.8594C138.249 30.5081 135.708 27.5723 132.494 25.5928C132.398 24.7148 132.295 23.8345 132.174 22.9587C132.262 23.6215 132.351 24.2836 132.44 24.9449C132.33 23.9842 132.231 23.022 132.143 22.0583C131.964 20.0945 131.454 18.363 130.016 16.9197C128.757 15.6618 126.688 14.7123 124.872 14.7949C120.753 14.9915 117.861 17.9965 117.615 22.065C117.141 30.1931 118.082 38.5378 119.784 46.4826C121.506 54.5258 124.179 62.2315 127.429 69.7742C127.845 70.3104 128.26 70.8474 128.674 71.3851C129.373 72.1466 130.258 72.7139 131.242 73.0317C131.883 73.3022 132.553 73.4972 133.239 73.6126C134.329 77.5582 135.41 81.5053 136.482 85.4539C138.597 93.2215 140.635 101.009 142.594 108.817C144.247 115.348 145.931 121.898 148.409 128.174C151.609 136.293 155.695 143.876 161.828 150.199C164.288 152.737 168.843 153.447 171.876 151.495C175.027 149.468 176.57 145.842 175.673 142.145Z" fill="#4A5CFF"/>
<path d="M169.831 151.471C177.849 148.625 173.582 116.044 160.3 78.6989C147.018 41.3538 129.751 13.3867 121.733 16.2326C113.715 19.0785 117.983 51.6597 131.264 89.0048C144.546 126.35 161.813 154.317 169.831 151.471Z" stroke="#FF4343" stroke-width="18.3309" stroke-miterlimit="10"/>
<path d="M175.285 87.516C173.227 79.1869 170.675 70.6009 165.992 63.2973C165.881 62.9406 165.671 62.6228 165.386 62.3813C165.263 62.198 165.14 62.0171 165.015 61.8361C164.945 61.7276 164.842 61.644 164.722 61.597C164.601 61.5501 164.469 61.5423 164.344 61.5747C164.261 61.5658 164.177 61.5711 164.096 61.5903C157.8 63.0649 151.44 64.2088 145.115 65.5628C142.033 66.2219 138.949 66.8452 135.863 67.4708C134.384 67.7702 132.913 68.0963 131.459 68.494C130.822 68.6683 130.117 68.8448 129.446 69.0682C129.507 69.4525 129.589 69.8301 129.686 70.2077C130.242 72.0598 130.773 73.9164 131.298 75.7753C131.379 76.0278 131.457 76.2802 131.54 76.5349C131.799 77.3363 132.051 78.1398 132.296 78.9456L132.416 79.2495C132.448 79.3073 132.472 79.3689 132.488 79.4327C133.141 81.0637 133.792 82.6946 134.143 84.4194C134.409 85.2238 134.677 86.0281 135.006 86.8123C135.04 86.8909 135.063 86.9735 135.075 87.058C136.69 91.2159 138.356 95.3603 139.875 99.5517C140.658 101.417 141.44 103.283 142.196 105.157C142.38 105.604 142.569 106.051 142.764 106.498C143.212 107.392 143.608 108.303 143.981 109.228C144.122 109.512 144.261 109.796 144.399 110.082C153.969 102.085 164.496 95.1593 174.954 88.4097C175.033 88.3617 175.1 88.2967 175.152 88.2194C175.203 88.1422 175.236 88.0545 175.249 87.9629C175.315 87.8232 175.328 87.6644 175.285 87.516Z" fill="#FFABAB"/>
<path d="M137.967 70.8913C137.678 71.709 137.678 72.6786 137.692 73.5321C137.708 74.4233 137.801 75.3114 137.971 76.1864C138.133 77.0355 138.38 77.8663 138.707 78.6663C139.018 79.4237 139.396 80.4872 140.232 80.7866C140.316 80.8102 140.406 80.8 140.482 80.7582C140.558 80.7164 140.615 80.6463 140.639 80.5632C140.769 79.77 140.235 78.959 139.969 78.2307C139.685 77.4655 139.461 76.6797 139.298 75.8803C139.143 75.109 139.058 74.3253 139.045 73.5388C139.027 72.7099 139.166 71.8833 139.15 71.0566C139.137 70.3595 138.191 70.2679 137.969 70.898L137.967 70.8913Z" fill="white"/>
<path d="M141.076 69.763C140.485 71.4689 140.37 73.3033 140.745 75.0693C140.922 75.9434 141.212 76.7912 141.606 77.5917C141.796 77.9829 142.021 78.3567 142.277 78.7088C142.411 78.9334 142.583 79.1336 142.784 79.3009C142.983 79.4356 143.215 79.5129 143.455 79.5243C143.679 79.5444 143.84 79.321 143.86 79.1199C143.905 78.673 143.672 78.3178 143.433 77.929C143.22 77.5818 143.025 77.2239 142.849 76.8566C142.517 76.1641 142.272 75.4332 142.12 74.6805C141.815 73.1565 141.887 71.5812 142.33 70.0915C142.376 69.9252 142.354 69.7476 142.269 69.5976C142.184 69.4476 142.043 69.3375 141.876 69.2916C141.71 69.2457 141.532 69.2677 141.382 69.3527C141.232 69.4378 141.122 69.5789 141.076 69.7452V69.763Z" fill="white"/>
<path d="M144.786 69.2044C144.093 70.612 144.017 72.1469 144.339 73.6728C144.5 74.4015 144.761 75.1045 145.115 75.7618C145.301 76.1015 145.517 76.4237 145.761 76.7248C145.864 76.8693 145.978 77.0053 146.103 77.1314C146.27 77.2671 146.447 77.3896 146.633 77.4978C146.718 77.5466 146.815 77.5723 146.913 77.5723C147.011 77.5723 147.107 77.5466 147.192 77.4978C147.968 77.1135 146.846 75.9339 146.593 75.5183C146.23 74.9431 145.952 74.3185 145.768 73.6639C145.429 72.341 145.429 70.9541 145.768 69.6312C145.909 69.0503 145.05 68.6302 144.766 69.2089L144.786 69.2044Z" fill="white"/>
<path d="M37.19 103.611C38.0889 103.127 38.9582 102.59 39.7933 102.003C40.6476 101.442 41.5019 100.885 42.3518 100.316C44.0358 99.1986 45.7065 98.0614 47.4039 96.9421C50.7944 94.6945 54.1871 92.4513 57.582 90.2127C59.5009 88.9414 61.431 87.6836 63.3566 86.4145C64.0275 85.9677 63.3968 84.864 62.7147 85.3175C59.3153 87.5852 55.9002 89.8306 52.4986 92.0961C49.0969 94.3616 45.693 96.6226 42.269 98.8635C41.3208 99.4876 40.3763 100.114 39.4354 100.742C38.4559 101.399 37.4405 102.018 36.5437 102.785C36.4535 102.875 36.3994 102.995 36.3916 103.123C36.3838 103.25 36.4228 103.376 36.5012 103.477C36.58 103.574 36.6901 103.64 36.8125 103.665C36.935 103.689 37.0622 103.67 37.1722 103.611H37.19Z" fill="white"/>
<path d="M67.9885 83.1884C68.1231 83.1331 68.2545 83.0704 68.3821 83.0007L68.7467 82.7907C69.1224 82.5673 69.7464 82.2835 69.5719 81.7473L69.5183 82.1539C69.5429 82.1159 69.5652 82.0757 69.5854 82.0378C69.6246 81.9699 69.6453 81.8928 69.6453 81.8144C69.6453 81.736 69.6247 81.659 69.5855 81.5911C69.5463 81.5232 69.4899 81.4668 69.4219 81.4275C69.354 81.3883 69.2769 81.3676 69.1985 81.3675H69.0643L69.4378 81.5194C69.0665 81.1061 68.4895 81.5015 68.1138 81.7138L67.7492 81.9193C67.6217 81.9931 67.5055 82.078 67.3869 82.1629C67.2547 82.2445 67.1568 82.3717 67.1118 82.5203C67.091 82.5972 67.0856 82.6775 67.0959 82.7565C67.1063 82.8355 67.1322 82.9117 67.1722 82.9806C67.251 83.1149 67.3796 83.2128 67.5301 83.2532L67.6888 83.2755C67.7945 83.2764 67.8983 83.2478 67.9885 83.1928V83.1884Z" fill="white"/>
<path d="M16.5967 110.948C15.96 111.38 15.4639 111.989 15.1698 112.7C15.1114 112.845 15.0628 112.995 15.0245 113.147C14.9395 113.486 15.0245 113.929 15.389 114.081C15.7133 114.217 16.0398 113.994 16.2031 113.717C16.2568 113.602 16.2995 113.483 16.3306 113.361C16.3552 113.285 16.3842 113.209 16.4156 113.138L16.3507 113.296C16.472 113.019 16.6219 112.755 16.798 112.508C16.874 112.401 16.6973 112.628 16.7823 112.528L16.8472 112.447C16.9009 112.387 16.9545 112.327 17.0127 112.269C17.0708 112.211 17.1111 112.17 17.1648 112.126C17.2184 112.081 17.2162 112.079 17.243 112.057L17.2967 112.014L17.2497 112.05C17.3893 111.962 17.4931 111.827 17.5427 111.67C17.5757 111.548 17.5717 111.419 17.5313 111.3C17.4909 111.18 17.4158 111.076 17.3157 110.999C17.2155 110.922 17.0948 110.877 16.9688 110.868C16.8427 110.86 16.7171 110.89 16.6079 110.953L16.5967 110.948Z" fill="white"/>
<path d="M13.0923 117.472C11.4396 120.808 11.3546 124.87 12.5623 128.366C12.7398 128.879 12.9444 129.383 13.1751 129.874C13.3987 130.355 13.6447 130.933 14.1121 131.215C14.1946 131.261 14.2877 131.286 14.3825 131.285C14.4772 131.285 14.5701 131.26 14.6523 131.213C14.7344 131.166 14.8029 131.098 14.8509 131.017C14.8989 130.935 14.9249 130.842 14.9262 130.748C14.9016 130.263 14.6131 129.843 14.4073 129.407C14.2351 129.045 14.0763 128.681 13.9355 128.306C13.6374 127.492 13.4128 126.653 13.2645 125.799C12.9721 124.125 12.9911 122.411 13.3204 120.743C13.5148 119.775 13.7908 118.825 14.1457 117.903C14.3693 117.3 13.3853 116.882 13.0968 117.457L13.0923 117.472Z" fill="white"/>
</svg>
